<?xml version="1.0" ?><svg id="Layer_1" style="enable-background:new 0 0 512 512;" version="1.1" viewBox="0 0 512 512" xml:space="preserve" xmlns="http://www.w3.org/2000/svg" xmlns:xlink="http://www.w3.org/1999/xlink"><style type="text/css">
	.st0{fill:#A5353D;}
	.st1{opacity:0.1;}
	.st2{fill:#C9494F;}
	.st3{fill:#FFFFFF;}
</style><g><g><circle class="st0" cx="256" cy="256" id="XMLID_314_" r="250"/><circle class="st1" cx="262.8" cy="265.3" id="XMLID_313_" r="202.8"/><circle class="st2" cx="256" cy="256" id="XMLID_312_" r="202.8"/></g><g><g><path class="st3" d="M333.9,223.7c-8.3-8.3-19.7-13.4-32.3-13.4c0-12.6-5.1-24-13.4-32.3c-11.7,0-23.4,4.5-32.3,13.4     c-8.9-8.9-20.6-13.4-32.3-13.4c-8.3,8.3-13.4,19.7-13.4,32.3c-12.6,0-24,5.1-32.3,13.4c0,11.7,4.5,23.4,13.4,32.3     c-8.9,8.9-13.4,20.6-13.4,32.3c8.3,8.3,19.7,13.4,32.3,13.4c0,12.6,5.1,24,13.4,32.3c11.7,0,23.4-4.5,32.3-13.4     c8.9,8.9,20.6,13.4,32.3,13.4c8.3-8.3,13.4-19.7,13.4-32.3c12.6,0,24-5.1,32.3-13.4c0-11.7-4.5-23.4-13.4-32.3     C329.5,247.1,333.9,235.4,333.9,223.7z M320.7,282.8c-5.5,3.9-12.1,6.1-19,6.1h-12.8v12.8c0,6.9-2.1,13.5-6.1,19     c-6.7-1.1-12.9-4.3-17.8-9.2l-9-9l-9,9c-4.9,4.9-11.1,8.1-17.8,9.2c-3.9-5.5-6.1-12.1-6.1-19v-12.8h-12.8c-6.9,0-13.5-2.1-19-6.1     c1.1-6.7,4.3-12.9,9.2-17.8l9-9l-9-9c-4.9-4.9-8.1-11.1-9.2-17.8c5.5-3.9,12.1-6.1,19-6.1h12.8v-12.8c0-6.9,2.1-13.5,6.1-19     c6.7,1.1,12.9,4.3,17.8,9.2l9,9l9-9c4.9-4.9,11.1-8.1,17.8-9.2c3.9,5.5,6.1,12.1,6.1,19v12.8h12.8c6.9,0,13.5,2.1,19,6.1     c-1.1,6.7-4.3,12.9-9.2,17.8l-9,9l9,9C316.4,269.9,319.6,276.1,320.7,282.8z"/><circle class="st3" cx="256" cy="256" id="XMLID_15_" r="31.3"/></g><g><path class="st3" d="M182,193c0.6,0,1.2-0.2,1.6-0.6c0.4-0.4,0.6-1,0.6-1.7c0-0.7-0.2-1.2-0.6-1.7     c-0.4-0.4-1-0.7-1.6-0.7c-0.7,0-1.3,0.2-1.7,0.7c-0.5,0.4-0.7,1-0.7,1.7c0,0.7,0.2,1.3,0.7,1.7C180.7,192.8,181.2,193,182,193z" id="XMLID_14_"/><polygon class="st3" id="XMLID_13_" points="330.5,324.8 327.3,329.7 330.9,329.7 330.9,324.1 330.8,324.1    "/><path class="st3" d="M182,186c0.5,0,0.9-0.2,1.2-0.6c0.3-0.4,0.5-0.9,0.5-1.5c0-0.6-0.2-1.1-0.5-1.4     c-0.3-0.4-0.7-0.5-1.2-0.5c-0.6,0-1,0.2-1.4,0.5c-0.3,0.3-0.5,0.8-0.5,1.5c0,0.6,0.2,1.1,0.5,1.5C180.9,185.8,181.4,186,182,186z     " id="XMLID_12_"/><path class="st3" d="M188.3,332.6c-0.6,0-1,0.1-1.4,0.3c-0.4,0.2-0.7,0.4-0.9,0.7v0.8c0,1.2,0.2,2.1,0.7,2.7     c0.4,0.6,1,1,1.7,1c0.6,0,1.2-0.3,1.5-0.8c0.4-0.5,0.6-1.2,0.6-2c0-0.8-0.2-1.5-0.6-2C189.5,332.9,189,332.6,188.3,332.6z" id="XMLID_11_"/><path class="st3" d="M396,198c-14.8-14.8-35.3-24-58-24c0-22.6-9.2-43.1-24-58c-21,0-42,8-58,24c-16-16-37-24-58-24     c-14.8,14.8-24,35.3-24,58c-22.6,0-43.1,9.2-58,24c0,21,8,42,24,58c-16,16-24,37-24,58c14.8,14.8,35.3,24,58,24     c0,22.6,9.2,43.1,24,58c21,0,42-8,58-24c16,16,37,24,58,24c14.8-14.8,24-35.3,24-58c22.6,0,43.1-9.2,58-24c0-21-8-42-24-58     C388,240,396,219,396,198z M323.9,177c0.9-0.9,2.2-1.4,3.8-1.4c1.6,0,2.8,0.4,3.7,1.2c0.9,0.8,1.3,1.9,1.3,3.3     c0,0.9-0.2,1.8-0.7,2.5c-0.5,0.8-1.3,1.8-2.5,3.2l-2.5,3l0,0.1h6.3v2.4h-10.3v-2l4.8-5.4c0.7-0.8,1.2-1.5,1.5-2.1     c0.3-0.6,0.4-1.1,0.4-1.6c0-0.6-0.2-1.1-0.5-1.5c-0.3-0.4-0.8-0.6-1.4-0.6c-0.7,0-1.2,0.2-1.6,0.7c-0.4,0.5-0.5,1.1-0.5,1.9h-3     l0-0.1C322.5,179.1,323,178,323.9,177z M250.4,145.6l6.3-0.5v15.6h-3.1V148h-3.2V145.6z M177.6,185.8c-0.4-0.6-0.6-1.3-0.6-2     c0-1.4,0.5-2.4,1.4-3.1c0.9-0.7,2.1-1.1,3.6-1.1c1.4,0,2.6,0.4,3.5,1.1c0.9,0.7,1.3,1.8,1.3,3.1c0,0.8-0.2,1.4-0.6,2     c-0.4,0.6-0.9,1-1.6,1.4c0.8,0.3,1.5,0.8,2,1.5c0.5,0.6,0.7,1.4,0.7,2.2c0,1.4-0.5,2.5-1.5,3.3c-1,0.8-2.3,1.2-3.8,1.2     c-1.6,0-2.9-0.4-4-1.2c-1-0.8-1.6-1.9-1.6-3.3c0-0.8,0.3-1.6,0.8-2.2c0.5-0.6,1.2-1.1,2.1-1.5C178.5,186.9,178,186.4,177.6,185.8     z M192.1,339.1c-1,1-2.2,1.4-3.8,1.4c-1.6,0-2.9-0.5-3.9-1.6c-1-1.1-1.5-2.6-1.5-4.5v-3.2c0-2,0.6-3.5,1.7-4.7     c1.1-1.2,2.6-1.8,4.4-1.8c0.6,0,1.2,0.1,1.7,0.2c0.5,0.1,1,0.3,1.5,0.5l-0.6,2.3c-0.5-0.2-0.9-0.3-1.3-0.4     c-0.4-0.1-0.8-0.1-1.3-0.1c-0.9,0-1.6,0.3-2.2,1c-0.6,0.7-0.8,1.7-0.8,2.9v0.5c0.4-0.4,0.9-0.7,1.5-0.9c0.6-0.2,1.2-0.3,1.9-0.3     c1.3,0,2.3,0.5,3.1,1.4c0.7,0.9,1.1,2.2,1.1,3.7C193.5,336.9,193.1,338.2,192.1,339.1z M259.9,365.5c-0.9,1-2.2,1.4-3.9,1.4     c-1.4,0-2.6-0.4-3.6-1.1c-1-0.8-1.5-1.8-1.5-3.1l0-0.1l3-0.1c0,0.6,0.2,1.1,0.6,1.5c0.4,0.4,0.9,0.5,1.5,0.5     c0.7,0,1.3-0.2,1.6-0.7c0.3-0.5,0.5-1.2,0.5-2.1c0-0.9-0.2-1.6-0.5-2.1c-0.4-0.5-0.9-0.8-1.6-0.8c-0.6,0-1,0.1-1.4,0.3     c-0.3,0.2-0.5,0.5-0.7,0.9l-2.7-0.2l0.9-8.6h8.6v2.5h-6.1l-0.4,3.6c0.3-0.2,0.7-0.4,1.1-0.5c0.4-0.1,0.9-0.2,1.4-0.2     c1.4,0,2.5,0.4,3.3,1.3c0.8,0.9,1.2,2.2,1.2,3.8C261.1,363.3,260.7,364.5,259.9,365.5z M335.7,332.1H334v3.3h-3.1v-3.3h-6.3     l-0.1-1.9l6.4-10.2h3.1v9.7h1.7V332.1z M372.2,304.1c-9.9,7.1-21.8,10.9-34.2,10.9h-23v23c0,12.4-3.8,24.3-10.9,34.2     c-12-2-23.1-7.7-31.9-16.5L256,339.5l-16.2,16.2c-8.8,8.8-19.9,14.5-31.9,16.5c-7.1-9.9-10.9-21.8-10.9-34.2v-23h-23     c-12.4,0-24.3-3.8-34.2-10.9c2-12,7.7-23.1,16.5-31.9l16.2-16.2l-16.2-16.2c-8.8-8.8-14.5-19.9-16.5-31.9     c9.9-7.1,21.8-10.9,34.2-10.9h23v-23c0-12.4,3.8-24.3,10.9-34.2c12,2,23.1,7.7,31.9,16.5l16.2,16.2l16.2-16.2     c8.8-8.8,19.9-14.5,31.9-16.5c7.1,9.9,10.9,21.8,10.9,34.2v23h23c12.4,0,24.3,3.8,34.2,10.9c-2,12-7.7,23.1-16.5,31.9L339.5,256     l16.2,16.2C364.5,281,370.2,292.1,372.2,304.1z M149.5,254.5v-2.4h10.8v2.4c-1.7,2-2.9,3.9-3.6,5.5c-0.6,1.6-0.9,3.5-0.9,5.6v1.9     h-3.1v-1.9c0-2.1,0.4-4.1,1.2-5.9c0.8-1.8,1.9-3.5,3.4-5.2H149.5z M358.8,259c-0.4-0.4-1-0.6-1.8-0.6h-1.7v-2.3h1.7     c0.7,0,1.3-0.2,1.6-0.6c0.4-0.4,0.5-0.9,0.5-1.6c0-0.6-0.2-1.1-0.6-1.4c-0.4-0.4-0.9-0.6-1.6-0.6c-0.6,0-1,0.2-1.4,0.5     c-0.4,0.3-0.6,0.8-0.6,1.3h-3l0-0.1c0-1.2,0.4-2.2,1.4-3c1-0.8,2.2-1.2,3.6-1.2c1.6,0,2.9,0.4,3.8,1.1c0.9,0.8,1.4,1.8,1.4,3.2     c0,0.7-0.2,1.4-0.6,1.9c-0.4,0.6-1,1.1-1.7,1.4c0.8,0.3,1.4,0.8,1.9,1.4c0.4,0.6,0.7,1.4,0.7,2.2c0,1.4-0.5,2.5-1.5,3.3     c-1,0.8-2.3,1.2-3.9,1.2c-1.4,0-2.6-0.4-3.7-1.1c-1.1-0.8-1.6-1.8-1.5-3.2l0-0.1h3c0,0.6,0.2,1.1,0.6,1.5     c0.4,0.4,0.9,0.6,1.6,0.6c0.7,0,1.3-0.2,1.7-0.6c0.4-0.4,0.7-0.9,0.7-1.6C359.4,260,359.2,259.4,358.8,259z"/></g></g></g></svg>